<?xml version="1.0" encoding="utf-8"?>
<!-- Generator: Adobe Illustrator 23.0.1, SVG Export Plug-In . SVG Version: 6.00 Build 0)  -->
<svg version="1.1" xmlns="http://www.w3.org/2000/svg" xmlns:xlink="http://www.w3.org/1999/xlink" x="0px" y="0px"
	 viewBox="0 0 141.7 141.7" style="enable-background:new 0 0 141.7 141.7;" xml:space="preserve">
<style type="text/css">
	.st0{fill:#18A3DD;}
	.st1{fill:#068DC2;}
	.st2{fill:#00B3D5;}
	.st3{fill:#59CAEF;}
</style>
<g id="Layer_1">
</g>
<g id="Layer_2">
	<g>
		<g>
			<polygon class="st0" points="40.2,70.9 40.2,47.3 51.7,50.4 60.7,59.1 51.3,67.3 			"/>
			<polygon class="st0" points="60.7,82.8 58.8,71 60.7,59.2 81.1,71 			"/>
			<polygon class="st1" points="81.1,47.3 79.2,33.9 81.1,23.7 101.5,35.5 92.4,43.4 			"/>
			<polygon class="st2" points="81.1,71 81.1,47.3 91.3,50.3 101.5,59.1 			"/>
			<polygon class="st3" points="40.2,94.4 40.2,70.9 50.4,73.8 60.7,82.7 50.5,91 			"/>
			<g>
				<polygon class="st2" points="60.7,35.5 60.7,59.1 40.2,47.3 				"/>
			</g>
			<polygon class="st3" points="81.1,23.7 81.1,47.3 60.7,35.5 			"/>
			<polygon class="st0" points="101.5,35.5 101.5,59.1 81.1,47.3 			"/>
			<polygon class="st1" points="60.7,59.1 60.7,82.7 40.2,70.9 			"/>
			<g>
				<polygon class="st0" points="81.1,94.4 78.6,106.2 81.1,118 101.5,106.2 90.7,97.1 				"/>
			</g>
			<polygon class="st3" points="81.1,71 81.1,94.4 90.8,91.5 101.5,82.7 			"/>
			<polygon class="st1" points="81.1,118 81.1,94.4 60.7,106.2 			"/>
			<polygon class="st2" points="101.5,106.2 101.5,82.7 81.1,94.4 			"/>
			<g>
				<polygon class="st2" points="60.7,82.7 60.7,106.2 40.2,94.4 				"/>
			</g>
		</g>
	</g>
</g>
</svg>
