<?xml version="1.0" encoding="utf-8"?>
<!-- Generator: Adobe Illustrator 23.0.1, SVG Export Plug-In . SVG Version: 6.00 Build 0)  -->
<svg version="1.1" xmlns="http://www.w3.org/2000/svg" xmlns:xlink="http://www.w3.org/1999/xlink" x="0px" y="0px"
	 viewBox="0 0 283.5 99.2" style="enable-background:new 0 0 283.5 99.2;" xml:space="preserve">
<style type="text/css">
	.st0{fill:#028DC3;}
	.st1{fill:#393C48;}
	.st2{fill:#068DC2;}
	.st3{fill:#18A3DD;}
	.st4{fill:#00B3D5;}
	.st5{fill:#59CAEF;}
</style>
<g id="Layer_1">
	<path class="st0" d="M91.5,65.8h1.1l-5.5,11.9h-0.5L81,65.8h1.1L86.8,76L91.5,65.8z M106.4,76.8v0.9h-8.3V65.8h8v0.9h-7v4.8h6v0.9
		h-6v4.4H106.4z M122.1,65.8v11.9h-0.6l-8.4-10v10h-1V65.8h0.6l8.4,10v-10H122.1z M137.3,66.7H133v11h-1v-11h-4.2v-0.9h9.4V66.7z
		 M152.7,72.9c0,2.7-1.7,4.8-4.9,4.8c-3.2,0-4.8-2.1-4.8-4.8v-7.1h1v6.9c0,2.4,1.4,4.1,3.9,4.1c2.5,0,3.9-1.7,3.9-4.1v-6.9h1V72.9z
		 M164.2,73.7c-0.3,0.1-0.6,0.1-0.9,0.1H160v3.9h-1V65.8h4.7c3.1,0,4.2,1.9,4.2,3.9c0,2.2-1.1,3.4-2.8,3.9l3.1,4.1h-1.2L164.2,73.7z
		 M160,72.9h3.2c2.2,0,3.7-1,3.7-3.2c0-1.6-0.9-3-3.3-3H160V72.9z M182.1,76.8v0.9h-8.3V65.8h8v0.9h-7v4.8h6v0.9h-6v4.4H182.1z
		 M196.2,74.5c0,2.1-1.7,3.2-4.3,3.2c-1.9,0-2.7-0.2-4.6-1.1l0.4-0.8c1.7,0.8,2.5,1,4.2,1c2,0,3.3-0.8,3.3-2.3
		c0-1.4-1.5-1.9-3.4-2.4c-2.4-0.6-4.4-1.2-4.4-3.3c0-1.9,1.6-3.1,4.1-3.1c1.4,0,3.2,0.4,4.2,0.9c-0.1,0.2-0.3,0.6-0.4,0.8
		c-1-0.5-2.6-0.8-3.8-0.8c-1.9,0-3.1,0.9-3.1,2.2c0,1.4,1.6,1.9,3.6,2.4C194.3,71.8,196.2,72.5,196.2,74.5z"/>
</g>
<g id="Layer_2">
	<g>
		<path class="st1" d="M92,29.2c-1,0-1.8,0.2-2.6,0.6c-0.7,0.4-1.4,1-2,1.7v-9H81V50h5.6l0.4-2.4c0.6,0.9,1.3,1.6,2.1,2.1
			c0.8,0.5,1.8,0.7,2.9,0.7c2.6,0,4.6-0.9,5.9-2.8c1.3-1.8,2-4.3,2-7.4v-0.4c0-3.2-0.7-5.8-2-7.7C96.6,30.2,94.6,29.2,92,29.2z
			 M93.6,40.2c0,1.8-0.2,3.1-0.6,4c-0.4,0.9-1.3,1.3-2.5,1.3c-0.7,0-1.3-0.1-1.8-0.3s-0.9-0.5-1.2-1v-8.6c0.3-0.5,0.7-0.9,1.2-1.1
			s1.1-0.4,1.8-0.4c1.2,0,2.1,0.5,2.5,1.5c0.5,1,0.7,2.4,0.7,4.2V40.2z M113,29.2c0.2,0,0.5,0.1,0.7,0.2l-0.6,5.6l-2.1,0
			c-0.7,0-1.3,0.1-1.8,0.4c-0.5,0.3-0.8,0.7-1,1.1V50h-6.4V29.6h6l0.2,3c0.4-1.1,1-1.9,1.7-2.5c0.7-0.6,1.5-0.9,2.5-0.9
			C112.5,29.2,112.7,29.2,113,29.2z M115.9,33.3l6.4-3.7V50h-6.4V33.3z M130.6,39.6V40c0,1.7,0.2,3.1,0.7,4c0.5,1,1.4,1.5,2.6,1.5
			c0.9,0,1.5-0.2,1.9-0.7c0.4-0.5,0.6-1.2,0.6-2h5.8l0,0.1c0.1,2.2-0.7,4-2.3,5.4c-1.6,1.4-3.6,2.1-6.1,2.1c-3.1,0-5.5-1-7.2-2.9
			c-1.7-1.9-2.5-4.4-2.5-7.5v-0.4c0-3.1,0.8-5.6,2.5-7.5c1.7-1.9,4.1-2.9,7.2-2.9c2.6,0,4.7,0.7,6.2,2.2s2.3,3.4,2.3,5.9l0,0.1h-5.8
			c0-1-0.2-1.8-0.7-2.4c-0.4-0.6-1.1-0.9-2-0.9c-1.2,0-2.1,0.5-2.6,1.5S130.6,37.9,130.6,39.6z M156.6,38.8L164,50h-7.3l-5.1-8.1
			h-1.2V50H144V22.5h6.4v14.5h0.9l4.3-7.5h7.3L156.6,38.8z M181.4,31.4c1.2,1.5,1.8,3.8,1.8,6.9V50h-6.4V38.2c0-1.6-0.2-2.6-0.6-3.2
			s-1-0.9-1.8-0.9c-0.7,0-1.3,0.1-1.9,0.3s-1,0.5-1.3,0.9V50h-6.4V22.5h6.4v9.6c0.6-0.9,1.4-1.6,2.3-2.1c0.9-0.5,1.9-0.8,2.9-0.8
			C178.5,29.2,180.2,29.9,181.4,31.4z M194.8,29.2c-3.1,0-5.5,1-7.3,2.9s-2.6,4.4-2.6,7.5V40c0,3.1,0.9,5.6,2.6,7.5s4.2,2.9,7.3,2.9
			c3.1,0,5.5-1,7.2-2.9c1.7-1.9,2.6-4.4,2.6-7.5v-0.4c0-3.1-0.9-5.6-2.6-7.5C200.3,30.2,197.9,29.2,194.8,29.2z M198.3,40
			c0,1.7-0.3,3-0.8,4c-0.5,1-1.4,1.5-2.7,1.5c-1.3,0-2.2-0.5-2.7-1.5c-0.5-1-0.8-2.3-0.8-4v-0.4c0-1.6,0.3-3,0.8-4s1.4-1.5,2.7-1.5
			c1.3,0,2.2,0.5,2.7,1.5c0.5,1,0.8,2.3,0.8,4V40z M218.4,29.6h6.4V50h-5.1l-0.8-3.1c-0.6,1.1-1.4,2-2.3,2.6c-1,0.6-2.1,0.9-3.3,0.9
			c-2.1,0-3.8-0.7-5-2.2c-1.2-1.5-1.8-3.8-1.8-6.9V29.6h6.4v11.7c0,1.6,0.2,2.7,0.6,3.3s1,0.9,1.9,0.9c0.7,0,1.3-0.1,1.8-0.3
			c0.5-0.2,1-0.5,1.3-0.8V29.6z M242.3,39.9c1.2,1,1.8,2.4,1.8,4.1c0,1.8-0.8,3.4-2.4,4.5c-1.6,1.2-3.8,1.8-6.5,1.8
			c-2.8,0-5-0.7-6.6-2.1s-2.4-3-2.3-4.7l0-0.1h5.8c0,1,0.3,1.7,0.9,2.1c0.6,0.4,1.4,0.6,2.4,0.6c0.9,0,1.5-0.2,1.9-0.5
			c0.4-0.3,0.7-0.8,0.7-1.4c0-0.5-0.3-1-0.9-1.3c-0.6-0.4-1.6-0.8-3.1-1.1c-2.4-0.5-4.2-1.2-5.4-2.2c-1.2-1-1.8-2.3-1.8-4
			c0-1.8,0.8-3.3,2.3-4.6c1.5-1.3,3.6-1.9,6.1-1.9c2.7,0,4.9,0.6,6.5,1.8c1.6,1.2,2.4,2.8,2.3,4.7l0,0.1h-6.2c0-0.8-0.2-1.4-0.6-1.8
			s-1.1-0.6-2-0.6c-0.7,0-1.2,0.2-1.7,0.5c-0.5,0.4-0.7,0.8-0.7,1.4c0,0.5,0.3,1,0.8,1.4c0.5,0.4,1.6,0.7,3.2,1
			C239.2,38.2,241.1,38.9,242.3,39.9z M263.6,41.8v-3.3c0-2.9-0.8-5.1-2.3-6.8c-1.5-1.6-3.7-2.5-6.4-2.5c-3.1,0-5.5,1-7.2,2.9
			c-1.7,2-2.5,4.5-2.5,7.6v0.7c0,2.9,0.9,5.2,2.6,7.1s4.2,2.8,7.3,2.8c1.6,0,3.2-0.2,4.7-0.7c1.5-0.4,2.7-1,3.5-1.6l-1.5-3.9
			c-1,0.4-2,0.8-2.8,1c-0.8,0.2-1.8,0.3-3,0.3c-1.3,0-2.3-0.3-3-1c-0.7-0.7-1.1-1.5-1.2-2.6l0-0.1H263.6z M251.8,37.7
			c0.1-1.1,0.4-2,0.8-2.6s1.2-1,2.3-1c0.9,0,1.5,0.3,1.9,0.8c0.4,0.5,0.6,1.3,0.6,2.4v0.5L251.8,37.7L251.8,37.7z"/>
		<g>
			<g>
				<polygon class="st2" points="115.9,28.9 115.9,21.5 122.3,25.2 				"/>
			</g>
		</g>
	</g>
</g>
<g id="Layer_3">
	<g>
		<g>
			<polygon class="st3" points="19.9,49.6 19.9,32.6 28.1,34.8 34.6,41.1 27.9,47 			"/>
			<polygon class="st3" points="34.6,58.2 33.3,49.7 34.6,41.2 49.3,49.7 			"/>
			<polygon class="st2" points="49.3,32.6 48,23 49.3,15.6 64,24.1 57.5,29.8 			"/>
			<polygon class="st4" points="49.3,49.7 49.3,32.6 56.7,34.8 64,41.1 			"/>
			<polygon class="st5" points="19.9,66.6 19.9,49.6 27.2,51.7 34.6,58.1 27.2,64.1 			"/>
			<g>
				<polygon class="st4" points="34.6,24.1 34.6,41.1 19.9,32.6 				"/>
			</g>
			<polygon class="st5" points="49.3,15.6 49.3,32.6 34.6,24.1 			"/>
			<polygon class="st3" points="64,24.1 64,41.1 49.3,32.6 			"/>
			<polygon class="st2" points="34.6,41.1 34.6,58.1 19.9,49.6 			"/>
			<g>
				<polygon class="st3" points="49.3,66.6 47.5,75.1 49.3,83.6 64,75.1 56.3,68.5 				"/>
			</g>
			<polygon class="st5" points="49.3,49.7 49.3,66.6 56.3,64.4 64,58.1 			"/>
			<polygon class="st2" points="49.3,83.6 49.3,66.6 34.6,75.1 			"/>
			<polygon class="st4" points="64,75.1 64,58.1 49.3,66.6 			"/>
			<g>
				<polygon class="st4" points="34.6,58.1 34.6,75.1 19.9,66.6 				"/>
			</g>
		</g>
	</g>
</g>
</svg>
