<svg width="auto" height="1369" viewBox="0 0 auto 1369" fill="none" xmlns="http://www.w3.org/2000/svg">
  <rect x="1" width="1445" height="1367.97" fill="white"/>
  <path d="M50.8929 907.479L6.00154 970.931L95.3214 971.214L50.8929 907.479Z" fill="#52AAF7"/>
  <path d="M100.662 971.214L145.322 907.62H56.0014L100.662 971.214Z" fill="#3898EC"/>
  <path d="M95.6616 705.927L140.322 769.521H51.0014L95.6616 705.927Z" fill="#2585D9"/>
  <path d="M46.6616 774.092L91.3218 837.686H2.00137L46.6616 774.092Z" fill="#79C1FF"/>
  <path d="M95.6616 840.389L140.322 903.983H51.0014L95.6616 840.389Z" fill="#79C1FF"/>
  <path d="M95.6616 836.752L140.322 773.158H51.0014L95.6616 836.752Z" fill="#0D64B1"/>
  <path d="M145.662 773.158L190.322 836.752H101.001L145.662 773.158Z" fill="#2585D9"/>
  <path d="M46.6616 769.521L91.3218 705.927H2.00137L46.6616 769.521Z" fill="#52AAF7"/>
  <path d="M145.662 903.983L190.322 840.389H101.001L145.662 903.983Z" fill="#3898EC"/>
  <path d="M0.0014141 971.214L44.6616 907.621H0.0014141L0.0014141 971.214Z" fill="#79C1FF"/>
  <path d="M0.0014141 834.884L44.6616 771.291H0.0014141L0.0014141 834.884Z" fill="#52AAF6"/>
  <path d="M50.8929 95.4832L6.00154 32.0315L95.3214 31.7482L50.8929 95.4832Z" fill="#52AAF7"/>
  <path d="M100.662 31.748L145.322 95.3418H56.0014L100.662 31.748Z" fill="#3898EC"/>
  <path d="M95.6616 297.035L140.322 233.442H51.0014L95.6616 297.035Z" fill="#2585D9"/>
  <path d="M50.6601 98.9792L95.3203 162.573H5.99991L50.6601 98.9792Z" fill="#79C1FF"/>
  <path d="M95.6616 166.21L140.322 229.804H51.0014L95.6616 166.21Z" fill="#0D64B1"/>
  <path d="M145.662 229.804L190.322 166.21H101.001L145.662 229.804Z" fill="#2585D9"/>
  <path d="M46.6601 233.442L91.3203 297.035H1.99991L46.6601 233.442Z" fill="#52AAF7"/>
  <path d="M145.662 98.9792L190.322 162.573H101.001L145.662 98.9792Z" fill="#3898EC"/>
  <path d="M0.0014141 31.748L44.6616 95.3418L0.0014141 95.3418L0.0014141 31.748Z" fill="#79C1FF"/>
  <path d="M50.8929 1300.98L6.00154 1237.52L95.3214 1237.24L50.8929 1300.98Z" fill="#52AAF7"/>
  <path d="M100.662 1237.24L145.322 1300.83L56.0014 1300.83L100.662 1237.24Z" fill="#3898EC"/>
  <path d="M50.6616 1304.47L95.3218 1368.06L6.00137 1368.06L50.6616 1304.47Z" fill="#79C1FF"/>
  <path d="M145.662 1304.47L190.322 1368.06L101.001 1368.06L145.662 1304.47Z" fill="#3898EC"/>
  <path d="M0.0014141 1237.24L44.6616 1300.83H0.0014141L0.0014141 1237.24Z" fill="#79C1FF"/>
  <path d="M68.1045 414.275L-0.000102752 455.977L-0.000102752 372.573L68.1045 414.275Z" fill="#79C1FF"/>
  <path d="M68.1045 503.916L-0.000102752 545.619L-0.000102752 462.214L68.1045 503.916Z" fill="#2585D9"/>
  <path d="M2.00146 459.096L70.1061 500.798L70.1061 417.393L2.00146 459.096Z" fill="#52AAF7"/>
  <path d="M500.662 1305.41L545.322 1369H456.001L500.662 1305.41Z" fill="#79C1FF"/>
  <path d="M596.662 1305.41L641.322 1369H552.001L596.662 1305.41Z" fill="#2585D9"/>
  <path d="M548.662 1367.13L593.322 1303.54H504.001L548.662 1367.13Z" fill="#52AAF7"/>
  <path d="M1090.66 1236.31L1135.32 1299.9H1046L1090.66 1236.31Z" fill="#3898EC"/>
  <path d="M994.66 1236.31L1039.32 1299.9H950L994.66 1236.31Z" fill="#52AAF6"/>
  <path d="M1140.66 1299.9L1096 1236.31H1185.32L1140.66 1299.9Z" fill="#2585D9"/>
  <path d="M1190.66 1236.3L1146 1299.9H1235.32L1190.66 1236.3Z" fill="#3898EC"/>
  <path d="M1190.66 1369L1146 1305.4H1235.32L1190.66 1369Z" fill="#2585D9"/>
  <path d="M1090.66 1369L1046 1305.4H1135.32L1090.66 1369Z" fill="#79C1FF"/>
  <path d="M994.66 1369L950 1305.4H1039.32L994.66 1369Z" fill="#2585D9"/>
  <path d="M1042.66 1298.03L1087.32 1234.44H998L1042.66 1298.03Z" fill="#79C1FF"/>
  <path d="M1042.66 1305.4L1087.32 1369H998L1042.66 1305.4Z" fill="#0D64B1"/>
</svg>
